<svg width="20" height="20" viewBox="0 0 20 20" fill="none" xmlns="http://www.w3.org/2000/svg">
<path d="M11.5152 9.20459H8.48486V10.7197H11.5152V9.20459Z" fill="#7096CD"/>
<path fill-rule="evenodd" clip-rule="evenodd" d="M6.2122 4.65896V3.90138C6.2122 3.49954 6.37183 3.11415 6.65598 2.83001C6.94013 2.54586 7.32551 2.38623 7.72735 2.38623H12.2728C12.6746 2.38623 13.06 2.54586 13.3442 2.83001C13.6283 3.11415 13.788 3.49954 13.788 3.90138V4.65896H16.0607C16.6634 4.65896 17.2415 4.89841 17.6677 5.32462C18.094 5.75084 18.3334 6.32892 18.3334 6.93169V14.5074C18.3334 15.1102 18.094 15.6883 17.6677 16.1145C17.2415 16.5407 16.6634 16.7802 16.0607 16.7802H3.93947C3.33671 16.7802 2.75863 16.5407 2.33241 16.1145C1.9062 15.6883 1.66675 15.1102 1.66675 14.5074V6.93169C1.66675 6.32892 1.9062 5.75084 2.33241 5.32462C2.75863 4.89841 3.33671 4.65896 3.93947 4.65896H6.2122ZM7.72735 3.90138H12.2728V4.65896H7.72735V3.90138ZM3.93947 6.17411C3.73855 6.17411 3.54586 6.25393 3.40379 6.396C3.26172 6.53807 3.1819 6.73076 3.1819 6.93169V11.4771H16.8183V6.93169C16.8183 6.73076 16.7384 6.53807 16.5964 6.396C16.4543 6.25393 16.2616 6.17411 16.0607 6.17411H3.93947ZM3.1819 14.5074V12.9923H16.8183V14.5074C16.8183 14.7084 16.7384 14.9011 16.5964 15.0431C16.4543 15.1852 16.2616 15.265 16.0607 15.265H3.93947C3.73855 15.265 3.54586 15.1852 3.40379 15.0431C3.26172 14.9011 3.1819 14.7084 3.1819 14.5074Z" fill="#7096CD"/>
</svg>
