<svg width="16" height="16" viewBox="0 0 16 16" fill="none" xmlns="http://www.w3.org/2000/svg">
<path d="M7.66667 14.3335C6.45778 14.3335 5.33778 14.0313 4.30667 13.4268C3.30222 12.8313 2.50222 12.0313 1.90667 11.0268C1.30222 9.99572 1 8.87572 1 7.66683C1 6.45794 1.30222 5.33794 1.90667 4.30683C2.50222 3.30238 3.30222 2.50238 4.30667 1.90683C5.33778 1.30238 6.45778 1.00016 7.66667 1.00016C8.87556 1.00016 9.99556 1.30238 11.0267 1.90683C12.0311 2.50238 12.8311 3.30238 13.4267 4.30683C14.0311 5.33794 14.3333 6.45794 14.3333 7.66683C14.3333 8.87572 14.0311 9.99572 13.4267 11.0268C12.8311 12.0313 12.0311 12.8313 11.0267 13.4268C9.99556 14.0313 8.87556 14.3335 7.66667 14.3335ZM7.66667 13.0002C8.63556 13.0002 9.53333 12.7557 10.36 12.2668C11.16 11.7957 11.7956 11.1602 12.2667 10.3602C12.7556 9.5335 13 8.63572 13 7.66683C13 6.69794 12.7556 5.80016 12.2667 4.9735C11.7956 4.1735 11.16 3.53794 10.36 3.06683C9.53333 2.57794 8.63556 2.3335 7.66667 2.3335C6.69778 2.3335 5.8 2.57794 4.97333 3.06683C4.17333 3.53794 3.53778 4.1735 3.06667 4.9735C2.57778 5.80016 2.33333 6.69794 2.33333 7.66683C2.33333 8.63572 2.57778 9.5335 3.06667 10.3602C3.53778 11.1602 4.17333 11.7957 4.97333 12.2668C5.8 12.7557 6.69778 13.0002 7.66667 13.0002ZM7 10.3335L4.17333 7.50683L5.12 6.56016L7 8.4535L10.7733 4.68016L11.72 5.6135L7 10.3335Z" fill="#7096CD"/>
</svg>
