<svg width="24" height="24" viewBox="0 0 24 24" fill="none" xmlns="http://www.w3.org/2000/svg">
<path fill-rule="evenodd" clip-rule="evenodd" d="M6.78028 4.22835C10.2532 3.92388 13.7468 3.92388 17.2197 4.22835L18.7181 4.35998C19.4435 4.42349 20.1259 4.72495 20.6549 5.21565C21.184 5.70635 21.529 6.35763 21.634 7.06426C22.122 10.3377 22.122 13.6633 21.634 16.9367C21.5288 17.6432 21.1837 18.2942 20.6547 18.7847C20.1256 19.2752 19.4434 19.5766 18.7181 19.64L17.2197 19.7717C13.7468 20.0761 10.2532 20.0761 6.78028 19.7717L5.28188 19.64C4.55665 19.5766 3.8744 19.2752 3.34533 18.7847C2.81626 18.2942 2.47125 17.6432 2.36602 16.9367C1.87799 13.6633 1.87799 10.3377 2.36602 7.06426C2.47105 6.35763 2.81597 5.70635 3.34506 5.21565C3.87415 4.72495 4.5565 4.42349 5.28188 4.35998L6.78028 4.22835ZM5.93533 7.00619C5.82257 6.94655 5.69594 6.91664 5.56785 6.91937C5.43976 6.9221 5.31458 6.95737 5.20456 7.02175C5.09454 7.08613 5.00344 7.1774 4.94018 7.28665C4.87691 7.39589 4.84364 7.51936 4.84361 7.64499V16.8399C4.84361 17.0324 4.92161 17.2171 5.06045 17.3532C5.19928 17.4894 5.38759 17.5658 5.58393 17.5658C5.78027 17.5658 5.96858 17.4894 6.10741 17.3532C6.24625 17.2171 6.32425 17.0324 6.32425 16.8399V8.86066L11.6486 11.6714C11.8677 11.7875 12.1323 11.7875 12.3514 11.6714L17.6758 8.86066V16.8399C17.6758 17.0324 17.7538 17.2171 17.8926 17.3532C18.0314 17.4894 18.2197 17.5658 18.4161 17.5658C18.6124 17.5658 18.8007 17.4894 18.9396 17.3532C19.0784 17.2171 19.1564 17.0324 19.1564 16.8399V7.64499C19.1564 7.51936 19.1231 7.39589 19.0598 7.28665C18.9966 7.1774 18.9055 7.08613 18.7954 7.02175C18.6854 6.95737 18.5602 6.9221 18.4321 6.91937C18.3041 6.91664 18.1774 6.94655 18.0647 7.00619L12 10.208L5.93533 7.00619Z" fill="#7096CD"/>
</svg>
