<svg width="24" height="24" viewBox="0 0 24 24" fill="none" xmlns="http://www.w3.org/2000/svg">
<path d="M8.99995 6.00023C8.99995 8.38718 9.94816 10.6764 11.636 12.3642C13.3238 14.052 15.613 15.0002 17.9999 15.0002C18.9099 15.0002 19.7869 14.8662 20.6139 14.6152C20.0524 16.4624 18.912 18.0801 17.361 19.2297C15.81 20.3794 13.9306 21.0001 11.9999 21.0002C9.8408 21.0018 7.75305 20.2271 6.11757 18.8174C4.48209 17.4078 3.40789 15.4572 3.09093 13.3214C2.77397 11.1857 3.23539 9.00713 4.39101 7.18327C5.54662 5.35941 7.3194 4.01178 9.38595 3.38623C9.12936 4.23382 8.99929 5.11465 8.99995 6.00023Z" stroke="#22252B" stroke-width="2" stroke-linecap="round" stroke-linejoin="round"/>
</svg>
